<mxfile host="Electron" agent="Mozilla/5.0 (Macintosh; Intel Mac OS X 10_15_7) AppleWebKit/537.36 (KHTML, like Gecko) draw.io/24.7.17 Chrome/128.0.6613.36 Electron/32.0.1 Safari/537.36" version="24.7.17">
  <diagram name="Page-1" id="_jYpc8udOmHERcSQWpAy">
    <mxGraphModel dx="1242" dy="801" grid="1" gridSize="10" guides="1" tooltips="1" connect="1" arrows="1" fold="1" page="1" pageScale="1" pageWidth="827" pageHeight="1169" math="0" shadow="0">
      <root>
        <mxCell id="0" />
        <mxCell id="1" parent="0" />
        <mxCell id="JxYXO2Y5Pcot8g5JDOVe-9" value="" style="rounded=0;whiteSpace=wrap;html=1;" vertex="1" parent="1">
          <mxGeometry x="180" y="90" width="520" height="280" as="geometry" />
        </mxCell>
        <mxCell id="JxYXO2Y5Pcot8g5JDOVe-8" value="" style="group" vertex="1" connectable="0" parent="1">
          <mxGeometry x="205" y="120" width="470" height="220" as="geometry" />
        </mxCell>
        <mxCell id="JxYXO2Y5Pcot8g5JDOVe-1" value="&lt;b&gt;&lt;font style=&quot;font-size: 18px;&quot;&gt;spring-boot-starter-&lt;/font&gt;&lt;/b&gt;&lt;b&gt;&lt;font style=&quot;font-size: 18px;&quot;&gt;spark&lt;/font&gt;&lt;/b&gt;" style="ellipse;whiteSpace=wrap;html=1;fillColor=#CCFFCC;" vertex="1" parent="JxYXO2Y5Pcot8g5JDOVe-8">
          <mxGeometry x="10" y="40" width="460" height="150" as="geometry" />
        </mxCell>
        <mxCell id="JxYXO2Y5Pcot8g5JDOVe-3" value="Spark&amp;nbsp;&lt;div&gt;Dependencies&lt;/div&gt;" style="ellipse;whiteSpace=wrap;html=1;fillColor=#66CC00;" vertex="1" parent="JxYXO2Y5Pcot8g5JDOVe-8">
          <mxGeometry x="184" width="106" height="70" as="geometry" />
        </mxCell>
        <mxCell id="JxYXO2Y5Pcot8g5JDOVe-4" value="Spark&amp;nbsp;&lt;div&gt;auto-configurations&lt;/div&gt;" style="ellipse;whiteSpace=wrap;html=1;fillColor=#66CC00;" vertex="1" parent="JxYXO2Y5Pcot8g5JDOVe-8">
          <mxGeometry x="364" y="30" width="106" height="70" as="geometry" />
        </mxCell>
        <mxCell id="JxYXO2Y5Pcot8g5JDOVe-5" value="Metadata for Configurations" style="ellipse;whiteSpace=wrap;html=1;fillColor=#66CC00;" vertex="1" parent="JxYXO2Y5Pcot8g5JDOVe-8">
          <mxGeometry y="30" width="106" height="70" as="geometry" />
        </mxCell>
        <mxCell id="JxYXO2Y5Pcot8g5JDOVe-6" value="Conditional &amp;amp; Customisable Beans" style="ellipse;whiteSpace=wrap;html=1;fillColor=#66CC00;" vertex="1" parent="JxYXO2Y5Pcot8g5JDOVe-8">
          <mxGeometry x="78" y="150" width="106" height="70" as="geometry" />
        </mxCell>
        <mxCell id="JxYXO2Y5Pcot8g5JDOVe-7" value="Useful Intelligent Defaults" style="ellipse;whiteSpace=wrap;html=1;fillColor=#66CC00;" vertex="1" parent="JxYXO2Y5Pcot8g5JDOVe-8">
          <mxGeometry x="280" y="150" width="106" height="70" as="geometry" />
        </mxCell>
      </root>
    </mxGraphModel>
  </diagram>
</mxfile>
